<svg width="44" height="44" viewBox="0 0 44 44" fill="none" xmlns="http://www.w3.org/2000/svg">
<path fill-rule="evenodd" clip-rule="evenodd" d="M44 22C44 32.3709 44 37.5564 40.7782 40.7782C37.5564 44 32.3709 44 22 44C11.6292 44 6.44358 44 3.2219 40.7782C0 37.5564 0 32.3709 0 22C0 11.6292 0 6.44358 3.2219 3.2219C6.44358 0 11.6292 0 22 0C32.3709 0 37.5564 0 40.7782 3.2219C44 6.44358 44 11.6292 44 22ZM22 9.35C21.0888 9.35 20.35 10.0888 20.35 11V22.4165L16.5667 18.6333C15.9223 17.989 14.8777 17.989 14.2333 18.6333C13.589 19.2777 13.589 20.3223 14.2333 20.9667L20.8333 27.5667C21.1427 27.8762 21.5624 28.05 22 28.05C22.4376 28.05 22.8573 27.8762 23.1667 27.5667L29.7667 20.9667C30.4111 20.3223 30.4111 19.2777 29.7667 18.6333C29.1224 17.989 28.0776 17.989 27.4333 18.6333L23.65 22.4165V11C23.65 10.0888 22.9112 9.35 22 9.35ZM30.8 31.35C31.7113 31.35 32.45 32.0887 32.45 33C32.45 33.9113 31.7113 34.65 30.8 34.65H13.2C12.2888 34.65 11.55 33.9113 11.55 33C11.55 32.0887 12.2888 31.35 13.2 31.35L30.8 31.35Z" fill="url(#paint0_linear_6505_460)"/>
<defs>
<linearGradient id="paint0_linear_6505_460" x1="22" y1="44" x2="22" y2="0" gradientUnits="userSpaceOnUse">
<stop stop-color="#7C48FE"/>
<stop offset="1" stop-color="#C849F8"/>
</linearGradient>
</defs>
</svg>
