<svg width="58" height="58" viewBox="0 0 58 58" fill="none" xmlns="http://www.w3.org/2000/svg">
<g filter="url(#filter0_d_6414_485)">
<path d="M29 49C41.7025 49 52 38.7025 52 26C52 13.2975 41.7025 3 29 3C16.2975 3 6 13.2975 6 26C6 38.7025 16.2975 49 29 49Z" fill="white"/>
</g>
<path d="M30.811 35.7731H26.584V26.7731H24.472V23.2991H26.584V21.2181C26.584 18.3891 27.772 16.7051 31.165 16.7051H33.986V20.1751H32.224C30.905 20.1751 30.817 20.6591 30.817 21.5641L30.811 23.2991H34.006L33.632 26.7691H30.811V35.7691V35.7731Z" fill="black"/>
<defs>
<filter id="filter0_d_6414_485" x="0" y="0" width="58" height="58" filterUnits="userSpaceOnUse" color-interpolation-filters="sRGB">
<feFlood flood-opacity="0" result="BackgroundImageFix"/>
<feColorMatrix in="SourceAlpha" type="matrix" values="0 0 0 0 0 0 0 0 0 0 0 0 0 0 0 0 0 0 127 0" result="hardAlpha"/>
<feOffset dy="3"/>
<feGaussianBlur stdDeviation="3"/>
<feColorMatrix type="matrix" values="0 0 0 0 0 0 0 0 0 0 0 0 0 0 0 0 0 0 0.161 0"/>
<feBlend mode="normal" in2="BackgroundImageFix" result="effect1_dropShadow_6414_485"/>
<feBlend mode="normal" in="SourceGraphic" in2="effect1_dropShadow_6414_485" result="shape"/>
</filter>
</defs>
</svg>
