<svg width="59" height="59" viewBox="0 0 59 59" fill="none" xmlns="http://www.w3.org/2000/svg">
<g filter="url(#filter0_d_6414_493)">
<path d="M29.239 49.478C42.0735 49.478 52.478 39.0735 52.478 26.239C52.478 13.4045 42.0735 3 29.239 3C16.4045 3 6 13.4045 6 26.239C6 39.0735 16.4045 49.478 29.239 49.478Z" fill="white"/>
</g>
<path d="M25.291 33.389C23.3461 33.3991 21.4746 32.6475 20.077 31.295C19.3944 30.6415 18.8512 29.8566 18.48 28.9876C18.1089 28.1186 17.9176 27.1834 17.9176 26.2385C17.9176 25.2935 18.1089 24.3583 18.48 23.4893C18.8512 22.6203 19.3944 21.8354 20.077 21.182C21.4395 19.877 23.2419 19.1304 25.1282 19.0896C27.0144 19.0489 28.8473 19.717 30.265 20.962L28.093 23.026C27.3029 22.3796 26.3137 22.0263 25.293 22.026C24.1587 22.0097 23.0644 22.4442 22.2503 23.2341C21.4362 24.024 20.9689 25.1048 20.951 26.239C20.9699 27.3721 21.4374 28.4515 22.251 29.2405C23.0645 30.0295 24.1578 30.4637 25.291 30.448C26.161 30.4517 27.0123 30.1952 27.7354 29.7114C28.4585 29.2276 29.0205 28.5386 29.349 27.733H25.198V24.746H32.498C32.7536 25.9176 32.7039 27.1353 32.3537 28.2823C32.0035 29.4292 31.3645 30.4669 30.498 31.296C29.1019 32.6464 27.2333 33.3975 25.291 33.389ZM38.591 29.27H36.724V26.782H34.158V24.972H36.724V22.483H38.591V24.972H41.157V26.782H38.591V29.271V29.27Z" fill="black"/>
<defs>
<filter id="filter0_d_6414_493" x="0" y="0" width="58.478" height="58.4785" filterUnits="userSpaceOnUse" color-interpolation-filters="sRGB">
<feFlood flood-opacity="0" result="BackgroundImageFix"/>
<feColorMatrix in="SourceAlpha" type="matrix" values="0 0 0 0 0 0 0 0 0 0 0 0 0 0 0 0 0 0 127 0" result="hardAlpha"/>
<feOffset dy="3"/>
<feGaussianBlur stdDeviation="3"/>
<feColorMatrix type="matrix" values="0 0 0 0 0 0 0 0 0 0 0 0 0 0 0 0 0 0 0.161 0"/>
<feBlend mode="normal" in2="BackgroundImageFix" result="effect1_dropShadow_6414_493"/>
<feBlend mode="normal" in="SourceGraphic" in2="effect1_dropShadow_6414_493" result="shape"/>
</filter>
</defs>
</svg>
