<svg width="44" height="42" viewBox="0 0 44 42" fill="none" xmlns="http://www.w3.org/2000/svg">
<rect width="44" height="42" rx="2" fill="#C6C6FF"/>
<path d="M32.6562 29.875H12.3438C11.0493 29.875 10 28.8257 10 27.5312V13.4688C10 12.1743 11.0493 11.125 12.3438 11.125H32.6562C33.9507 11.125 35 12.1743 35 13.4688V27.5312C35 28.8257 33.9507 29.875 32.6562 29.875ZM15.4688 13.8594C13.9586 13.8594 12.7344 15.0836 12.7344 16.5938C12.7344 18.1039 13.9586 19.3281 15.4688 19.3281C16.9789 19.3281 18.2031 18.1039 18.2031 16.5938C18.2031 15.0836 16.9789 13.8594 15.4688 13.8594ZM13.125 26.75H31.875V21.2812L27.6018 17.0081C27.373 16.7792 27.002 16.7792 26.7731 17.0081L20.1562 23.625L17.4456 20.9143C17.2167 20.6855 16.8458 20.6855 16.6169 20.9143L13.125 24.4062V26.75Z" fill="white"/>
</svg>
