<svg width="224" height="42" viewBox="0 0 224 42" fill="none" xmlns="http://www.w3.org/2000/svg">
<path d="M77.6675 32.3C76.6275 32.3 75.6875 32.08 74.8475 31.64C74.0075 31.2 73.3375 30.6 72.8375 29.84C72.3375 29.08 72.0675 28.23 72.0275 27.29V22.13C72.0675 21.19 72.3375 20.35 72.8375 19.61C73.3575 18.85 74.0375 18.26 74.8775 17.84C75.7175 17.42 76.6475 17.21 77.6675 17.21C79.0075 17.21 80.2075 17.54 81.2675 18.2C82.3275 18.86 83.1575 19.76 83.7575 20.9C84.3775 22.04 84.6875 23.33 84.6875 24.77C84.6875 26.19 84.3775 27.47 83.7575 28.61C83.1575 29.75 82.3275 30.65 81.2675 31.31C80.2075 31.97 79.0075 32.3 77.6675 32.3ZM77.0075 28.67C77.7275 28.67 78.3575 28.51 78.8975 28.19C79.4575 27.85 79.8875 27.39 80.1875 26.81C80.5075 26.21 80.6675 25.52 80.6675 24.74C80.6675 23.98 80.5075 23.31 80.1875 22.73C79.8875 22.13 79.4575 21.67 78.8975 21.35C78.3375 21.01 77.6975 20.84 76.9775 20.84C76.2575 20.84 75.6175 21.01 75.0575 21.35C74.5175 21.67 74.0875 22.13 73.7675 22.73C73.4675 23.31 73.3175 23.98 73.3175 24.74C73.3175 25.52 73.4675 26.21 73.7675 26.81C74.0875 27.39 74.5275 27.85 75.0875 28.19C75.6475 28.51 76.2875 28.67 77.0075 28.67ZM69.6275 32V10.31H73.5575V21.08L72.8975 24.56L73.5275 28.1V32H69.6275ZM93.3242 38.42C91.7842 38.42 90.4242 38.14 89.2442 37.58C88.0642 37.04 87.1242 36.27 86.4242 35.27L88.9142 32.78C89.4742 33.44 90.0942 33.94 90.7742 34.28C91.4742 34.64 92.3142 34.82 93.2942 34.82C94.5142 34.82 95.4742 34.51 96.1742 33.89C96.8942 33.27 97.2542 32.41 97.2542 31.31V27.68L97.9142 24.5L97.2842 21.32V17.51H101.184V31.25C101.184 32.69 100.844 33.94 100.164 35C99.5042 36.08 98.5842 36.92 97.4042 37.52C96.2242 38.12 94.8642 38.42 93.3242 38.42ZM93.1442 31.61C91.8442 31.61 90.6742 31.3 89.6342 30.68C88.5942 30.04 87.7742 29.17 87.1742 28.07C86.5942 26.97 86.3042 25.74 86.3042 24.38C86.3042 23.02 86.5942 21.8 87.1742 20.72C87.7742 19.64 88.5942 18.79 89.6342 18.17C90.6742 17.53 91.8442 17.21 93.1442 17.21C94.2242 17.21 95.1742 17.42 95.9942 17.84C96.8342 18.26 97.4942 18.84 97.9742 19.58C98.4542 20.3 98.7142 21.15 98.7542 22.13V26.69C98.7142 27.65 98.4442 28.51 97.9442 29.27C97.4642 30.01 96.8042 30.59 95.9642 31.01C95.1442 31.41 94.2042 31.61 93.1442 31.61ZM93.9242 28.04C94.6442 28.04 95.2642 27.89 95.7842 27.59C96.3242 27.27 96.7442 26.84 97.0442 26.3C97.3442 25.74 97.4942 25.11 97.4942 24.41C97.4942 23.69 97.3442 23.06 97.0442 22.52C96.7442 21.98 96.3242 21.56 95.7842 21.26C95.2642 20.94 94.6442 20.78 93.9242 20.78C93.2042 20.78 92.5742 20.94 92.0342 21.26C91.4942 21.56 91.0742 21.99 90.7742 22.55C90.4742 23.09 90.3242 23.71 90.3242 24.41C90.3242 25.09 90.4742 25.71 90.7742 26.27C91.0742 26.81 91.4942 27.24 92.0342 27.56C92.5742 27.88 93.2042 28.04 93.9242 28.04ZM107.337 32.3C106.617 32.3 106.027 32.06 105.567 31.58C105.107 31.1 104.877 30.51 104.877 29.81C104.877 29.11 105.107 28.52 105.567 28.04C106.027 27.56 106.617 27.32 107.337 27.32C108.037 27.32 108.617 27.56 109.077 28.04C109.537 28.52 109.767 29.11 109.767 29.81C109.767 30.51 109.537 31.1 109.077 31.58C108.617 32.06 108.037 32.3 107.337 32.3ZM113.485 32V17.51H117.415V32H113.485ZM117.415 23.99L115.885 22.97C116.065 21.19 116.585 19.79 117.445 18.77C118.305 17.73 119.545 17.21 121.165 17.21C121.865 17.21 122.495 17.33 123.055 17.57C123.615 17.79 124.125 18.16 124.585 18.68L122.125 21.5C121.905 21.26 121.635 21.08 121.315 20.96C121.015 20.84 120.665 20.78 120.265 20.78C119.425 20.78 118.735 21.05 118.195 21.59C117.675 22.11 117.415 22.91 117.415 23.99ZM132.485 32.3C130.965 32.3 129.615 31.98 128.435 31.34C127.255 30.68 126.315 29.78 125.615 28.64C124.935 27.5 124.595 26.2 124.595 24.74C124.595 23.3 124.925 22.02 125.585 20.9C126.265 19.76 127.185 18.86 128.345 18.2C129.505 17.52 130.795 17.18 132.215 17.18C133.615 17.18 134.845 17.5 135.905 18.14C136.985 18.76 137.825 19.62 138.425 20.72C139.045 21.8 139.355 23.03 139.355 24.41C139.355 24.67 139.335 24.94 139.295 25.22C139.275 25.48 139.225 25.78 139.145 26.12L126.965 26.15V23.21L137.315 23.18L135.725 24.41C135.685 23.55 135.525 22.83 135.245 22.25C134.985 21.67 134.595 21.23 134.075 20.93C133.575 20.61 132.955 20.45 132.215 20.45C131.435 20.45 130.755 20.63 130.175 20.99C129.595 21.33 129.145 21.82 128.825 22.46C128.525 23.08 128.375 23.82 128.375 24.68C128.375 25.56 128.535 26.33 128.855 26.99C129.195 27.63 129.675 28.13 130.295 28.49C130.915 28.83 131.635 29 132.455 29C133.195 29 133.865 28.88 134.465 28.64C135.065 28.38 135.585 28 136.025 27.5L138.335 29.81C137.635 30.63 136.775 31.25 135.755 31.67C134.755 32.09 133.665 32.3 132.485 32.3ZM141.786 32V17.51H145.716V32H141.786ZM151.236 32V23.45C151.236 22.61 150.966 21.96 150.426 21.5C149.906 21.02 149.256 20.78 148.476 20.78C147.956 20.78 147.486 20.89 147.066 21.11C146.646 21.31 146.316 21.61 146.076 22.01C145.836 22.41 145.716 22.89 145.716 23.45L144.186 22.7C144.186 21.58 144.426 20.61 144.906 19.79C145.406 18.97 146.076 18.34 146.916 17.9C147.756 17.44 148.706 17.21 149.766 17.21C150.766 17.21 151.676 17.44 152.496 17.9C153.316 18.34 153.966 18.97 154.446 19.79C154.926 20.59 155.166 21.56 155.166 22.7V32H151.236ZM160.686 32V23.45C160.686 22.61 160.416 21.96 159.876 21.5C159.356 21.02 158.706 20.78 157.926 20.78C157.426 20.78 156.956 20.89 156.516 21.11C156.096 21.31 155.766 21.61 155.526 22.01C155.286 22.41 155.166 22.89 155.166 23.45L152.916 22.91C152.996 21.75 153.306 20.75 153.846 19.91C154.386 19.05 155.096 18.39 155.976 17.93C156.856 17.45 157.836 17.21 158.916 17.21C159.996 17.21 160.966 17.44 161.826 17.9C162.686 18.34 163.366 18.98 163.866 19.82C164.366 20.66 164.616 21.66 164.616 22.82V32H160.686ZM174.611 32.3C173.151 32.3 171.831 31.97 170.651 31.31C169.491 30.63 168.561 29.72 167.861 28.58C167.181 27.42 166.841 26.13 166.841 24.71C166.841 23.29 167.181 22.02 167.861 20.9C168.541 19.76 169.471 18.86 170.651 18.2C171.831 17.52 173.141 17.18 174.581 17.18C176.061 17.18 177.381 17.52 178.541 18.2C179.721 18.86 180.651 19.76 181.331 20.9C182.011 22.02 182.351 23.29 182.351 24.71C182.351 26.13 182.011 27.42 181.331 28.58C180.651 29.72 179.721 30.63 178.541 31.31C177.381 31.97 176.071 32.3 174.611 32.3ZM174.581 28.64C175.321 28.64 175.971 28.48 176.531 28.16C177.111 27.82 177.551 27.36 177.851 26.78C178.171 26.18 178.331 25.5 178.331 24.74C178.331 23.98 178.171 23.31 177.851 22.73C177.531 22.15 177.091 21.7 176.531 21.38C175.971 21.04 175.321 20.87 174.581 20.87C173.861 20.87 173.221 21.04 172.661 21.38C172.101 21.7 171.661 22.15 171.341 22.73C171.021 23.31 170.861 23.98 170.861 24.74C170.861 25.5 171.021 26.18 171.341 26.78C171.661 27.36 172.101 27.82 172.661 28.16C173.221 28.48 173.861 28.64 174.581 28.64ZM189.152 32L182.762 17.51H187.082L191.672 29.45H189.542L194.162 17.51H198.332L191.972 32H189.152ZM205.766 32.3C204.446 32.3 203.256 31.97 202.196 31.31C201.136 30.65 200.306 29.75 199.706 28.61C199.106 27.47 198.806 26.19 198.806 24.77C198.806 23.33 199.106 22.04 199.706 20.9C200.306 19.76 201.136 18.86 202.196 18.2C203.256 17.54 204.446 17.21 205.766 17.21C206.806 17.21 207.736 17.42 208.556 17.84C209.376 18.26 210.026 18.85 210.506 19.61C211.006 20.35 211.276 21.19 211.316 22.13V27.35C211.276 28.31 211.006 29.16 210.506 29.9C210.026 30.64 209.376 31.23 208.556 31.67C207.736 32.09 206.806 32.3 205.766 32.3ZM206.486 28.67C207.586 28.67 208.476 28.31 209.156 27.59C209.836 26.85 210.176 25.9 210.176 24.74C210.176 23.98 210.016 23.31 209.696 22.73C209.396 22.13 208.966 21.67 208.406 21.35C207.866 21.01 207.226 20.84 206.486 20.84C205.766 20.84 205.126 21.01 204.566 21.35C204.026 21.67 203.596 22.13 203.276 22.73C202.976 23.31 202.826 23.98 202.826 24.74C202.826 25.52 202.976 26.21 203.276 26.81C203.596 27.39 204.026 27.85 204.566 28.19C205.126 28.51 205.766 28.67 206.486 28.67ZM209.966 32V28.1L210.596 24.56L209.966 21.08V17.51H213.866V32H209.966ZM217.342 32V10.31H221.272V32H217.342Z" fill="black"/>
<path d="M18.7282 0H44.2018L25.4736 27.7589H0L18.7282 0Z" fill="#007AFF"/>
<path d="M19.8437 30.3314L12.5899 41.0831H39.2718L58 13.3242H38.3071L26.8327 30.3314H19.8437Z" fill="#312ECB"/>
</svg>
