<svg width="59" height="59" viewBox="0 0 59 59" fill="none" xmlns="http://www.w3.org/2000/svg">
<g filter="url(#filter0_d_6414_489)">
<path d="M29.24 49.48C42.0751 49.48 52.48 39.0751 52.48 26.24C52.48 13.4049 42.0751 3 29.24 3C16.4049 3 6 13.4049 6 26.24C6 39.0751 16.4049 49.48 29.24 49.48Z" fill="white"/>
</g>
<path d="M38.778 20.3267C38.0638 20.6427 37.3064 20.8504 36.531 20.9427C37.3477 20.4542 37.959 19.6855 38.251 18.7797C37.4829 19.2354 36.6424 19.556 35.766 19.7277C35.2291 19.1557 34.5328 18.7582 33.7672 18.5868C33.0017 18.4154 32.2023 18.4779 31.4728 18.7664C30.7433 19.0548 30.1173 19.5558 29.676 20.2044C29.2347 20.853 28.9985 21.6193 28.998 22.4037C28.9973 22.7039 29.0309 23.0032 29.098 23.2957C27.5431 23.2176 26.022 22.8133 24.6334 22.1092C23.2449 21.4051 22.0199 20.4169 21.038 19.2087C20.5377 20.0698 20.3843 21.0892 20.6091 22.0593C20.8339 23.0294 21.4199 23.8775 22.248 24.4307C21.6269 24.4116 21.0195 24.2435 20.477 23.9407V23.9927C20.4773 24.8949 20.7893 25.7692 21.3603 26.4677C21.9312 27.1662 22.7259 27.6459 23.61 27.8257C23.2739 27.9172 22.9272 27.9632 22.579 27.9627C22.3336 27.9628 22.0888 27.9393 21.848 27.8927C22.0981 28.67 22.5848 29.3497 23.2401 29.8368C23.8955 30.324 24.6866 30.5942 25.503 30.6097C24.1163 31.6964 22.4047 32.2856 20.643 32.2827C20.3312 32.2832 20.0196 32.2652 19.71 32.2287C21.4996 33.3787 23.5827 33.9887 25.71 33.9857C27.1741 33.9956 28.6255 33.7145 29.9801 33.1587C31.3346 32.603 32.5653 31.7836 33.6006 30.7484C34.6359 29.7131 35.4552 28.4824 36.0109 27.1279C36.5667 25.7733 36.8478 24.3218 36.838 22.8577C36.838 22.6877 36.838 22.5197 36.827 22.3517C37.5927 21.7984 38.2537 21.113 38.779 20.3277L38.778 20.3267Z" fill="black"/>
<defs>
<filter id="filter0_d_6414_489" x="0" y="0" width="58.48" height="58.4805" filterUnits="userSpaceOnUse" color-interpolation-filters="sRGB">
<feFlood flood-opacity="0" result="BackgroundImageFix"/>
<feColorMatrix in="SourceAlpha" type="matrix" values="0 0 0 0 0 0 0 0 0 0 0 0 0 0 0 0 0 0 127 0" result="hardAlpha"/>
<feOffset dy="3"/>
<feGaussianBlur stdDeviation="3"/>
<feColorMatrix type="matrix" values="0 0 0 0 0 0 0 0 0 0 0 0 0 0 0 0 0 0 0.161 0"/>
<feBlend mode="normal" in2="BackgroundImageFix" result="effect1_dropShadow_6414_489"/>
<feBlend mode="normal" in="SourceGraphic" in2="effect1_dropShadow_6414_489" result="shape"/>
</filter>
</defs>
</svg>
