<svg width="44" height="44" viewBox="0 0 44 44" fill="none" xmlns="http://www.w3.org/2000/svg">
<path fill-rule="evenodd" clip-rule="evenodd" d="M0 22C0 11.6291 -2.6226e-07 6.44365 3.22183 3.22183C6.44365 -2.6226e-07 11.6291 0 22 0C32.3708 0 37.5564 -2.6226e-07 40.7781 3.22183C44 6.44365 44 11.6291 44 22C44 32.3708 44 37.5564 40.7781 40.7781C37.5564 44 32.3708 44 22 44C11.6291 44 6.44365 44 3.22183 40.7781C-2.6226e-07 37.5564 0 32.3708 0 22ZM22 34.65C22.9112 34.65 23.65 33.9112 23.65 33V21.5835L27.4333 25.3667C28.0777 26.011 29.1223 26.011 29.7667 25.3667C30.411 24.7223 30.411 23.6777 29.7667 23.0333L23.1667 16.4333C22.8573 16.1238 22.4376 15.95 22 15.95C21.5624 15.95 21.1427 16.1238 20.8333 16.4333L14.2333 23.0333C13.5889 23.6777 13.5889 24.7223 14.2333 25.3667C14.8776 26.011 15.9224 26.011 16.5667 25.3667L20.35 21.5835V33C20.35 33.9112 21.0888 34.65 22 34.65ZM13.2 12.65C12.2887 12.65 11.55 11.9113 11.55 11C11.55 10.0887 12.2887 9.35 13.2 9.35H30.8C31.7112 9.35 32.45 10.0887 32.45 11C32.45 11.9113 31.7112 12.65 30.8 12.65H13.2Z" fill="url(#paint0_linear_6505_459)"/>
<defs>
<linearGradient id="paint0_linear_6505_459" x1="22" y1="0" x2="22" y2="44" gradientUnits="userSpaceOnUse">
<stop stop-color="#7C48FE"/>
<stop offset="1" stop-color="#C849F8"/>
</linearGradient>
</defs>
</svg>
