<svg width="29" height="29" viewBox="0 0 29 29" fill="none" xmlns="http://www.w3.org/2000/svg">
<path d="M15.3232 0.362753C15.1118 0.131645 14.8132 0 14.5 0C14.1868 0 13.8882 0.131645 13.6769 0.362753L7.72812 6.86916C7.31246 7.32379 7.34404 8.02931 7.79867 8.44498C8.25332 8.86064 8.95882 8.82906 9.37449 8.37443L13.3846 3.98832V20.4487C13.3846 21.0647 13.884 21.5641 14.5 21.5641C15.116 21.5641 15.6154 21.0647 15.6154 20.4487V3.98832L19.6256 8.37443C20.0413 8.82906 20.7468 8.86064 21.2014 8.44498C21.656 8.02931 21.6876 7.32379 21.2719 6.86916L15.3232 0.362753Z" fill="white"/>
<path d="M2.23077 18.9611C2.23077 18.3451 1.7314 17.8457 1.11539 17.8457C0.499381 17.8457 7.79212e-07 18.3451 7.79212e-07 18.9611V19.0427C-2.89644e-05 21.0766 -5.88145e-05 22.7159 0.173287 24.0053C0.353265 25.3439 0.738281 26.4709 1.63344 27.366C2.52861 28.2613 3.6557 28.6463 4.99432 28.8263C6.28366 28.9995 7.92301 28.9995 9.95686 28.9995H19.0432C21.0771 28.9995 22.7164 28.9995 24.0058 28.8263C25.3444 28.6463 26.4713 28.2613 27.3666 27.366C28.2618 26.4709 28.6468 25.3439 28.8267 24.0053C29 22.7159 29 21.0766 29 19.0427V18.9611C29 18.3451 28.5006 17.8457 27.8846 17.8457C27.2686 17.8457 26.7692 18.3451 26.7692 18.9611C26.7692 21.0958 26.7669 22.5846 26.6159 23.708C26.4691 24.7993 26.2008 25.3771 25.7892 25.7887C25.3775 26.2004 24.7998 26.4687 23.7085 26.6155C22.5851 26.7664 21.0962 26.7688 18.9615 26.7688H10.0385C7.90375 26.7688 6.4149 26.7664 5.29156 26.6155C4.20032 26.4687 3.62243 26.2004 3.21084 25.7887C2.79924 25.3771 2.53088 24.7993 2.38417 23.708C2.23313 22.5846 2.23077 21.0958 2.23077 18.9611Z" fill="white"/>
</svg>
